<svg xmlns="http://www.w3.org/2000/svg" viewBox="0 0 200 200">
  <!-- Definitions for gradients -->
  <defs>
    <!-- Gold gradient for frame -->
    <linearGradient id="goldFrame" x1="0%" y1="0%" x2="100%" y2="100%">
      <stop offset="0%" style="stop-color:#D4AF37"/>
      <stop offset="100%" style="stop-color:#B8860B"/>
    </linearGradient>
    
    <!-- Gold gradient for RSS -->
    <linearGradient id="goldRSS" x1="0%" y1="0%" x2="100%" y2="0%">
      <stop offset="0%" style="stop-color:#FFD700"/>
      <stop offset="100%" style="stop-color:#DAA520"/>
    </linearGradient>
    
    <!-- Black gradient for background -->
    <linearGradient id="blackBg" x1="0%" y1="0%" x2="100%" y2="100%">
      <stop offset="0%" style="stop-color:#1A1A1A"/>
      <stop offset="100%" style="stop-color:#000000"/>
    </linearGradient>
  </defs>
  
  <!-- Background Rectangle -->
  <rect x="40" y="40" width="120" height="120" rx="24" ry="24" fill="url(#blackBg)"/>
  
  <!-- Frame -->
  <rect x="40" y="40" width="120" height="120" rx="24" ry="24" fill="none" stroke="url(#goldFrame)" stroke-width="2"/>
  
  <!-- Main RSS Quarter Circles -->
  <path d="M65 135 A70 70 0 0 1 135 135" fill="none" stroke="url(#goldRSS)" stroke-width="2"/>
  <path d="M75 125 A50 50 0 0 1 125 125" fill="none" stroke="url(#goldRSS)" stroke-width="2"/>
  
  <!-- AI Neural Network Lines -->
  <line x1="80" y1="80" x2="120" y2="80" stroke="#D4AF37" stroke-width="1.5"/>
  <line x1="80" y1="80" x2="100" y2="65" stroke="#D4AF37" stroke-width="1.5"/>
  <line x1="120" y1="80" x2="100" y2="65" stroke="#D4AF37" stroke-width="1.5"/>
  
  <!-- Connection Points -->
  <circle cx="80" cy="80" r="2.5" fill="#FFD700"/>
  <circle cx="120" cy="80" r="2.5" fill="#FFD700"/>
  <circle cx="100" cy="65" r="2.5" fill="#FFD700"/>
  
  <!-- Central Processing Point -->
  <circle cx="100" cy="100" r="3.5" fill="#FFD700"/>
  
  <!-- Subtle Decorative Line -->
  <path d="M65 100 L135 100" stroke="#D4AF37" stroke-width="0.5" opacity="0.3"/>
</svg>